<svg xmlns="http://www.w3.org/2000/svg" viewBox="0 0 128 128" role="img" aria-label="ARQON">
  <rect width="128" height="128" rx="16" fill="#020202"/>
  <g transform="translate(64 64)" fill="#f7eee1">
    <rect x="-6" y="-54" width="12" height="28" rx="1" transform="rotate(0)"/>
    <rect x="-6" y="-54" width="12" height="28" rx="1" transform="rotate(36)"/>
    <rect x="-6" y="-54" width="12" height="28" rx="1" transform="rotate(72)"/>
    <rect x="-6" y="-54" width="12" height="28" rx="1" transform="rotate(108)"/>
    <rect x="-6" y="-54" width="12" height="28" rx="1" transform="rotate(144)"/>
    <rect x="-6" y="-54" width="12" height="28" rx="1" transform="rotate(180)"/>
    <rect x="-6" y="-54" width="12" height="28" rx="1" transform="rotate(216)"/>
    <rect x="-6" y="-54" width="12" height="28" rx="1" transform="rotate(252)"/>
    <rect x="-6" y="-54" width="12" height="28" rx="1" transform="rotate(288)"/>
    <rect x="-6" y="-54" width="12" height="28" rx="1" transform="rotate(324)" fill="#e3c1aa"/>
    <circle r="14"/>
  </g>
</svg>
